<svg xmlns="http://www.w3.org/2000/svg" viewBox="0 0 420 297" font-family="Arial, Helvetica, sans-serif">
	<rect width="420" height="297" fill="#ffffff"/>
	<rect x="10" y="10" width="400" height="277" fill="none" stroke="#000" stroke-width="0.35"/>
	<text x="20" y="22" font-size="5" font-weight="bold">FASAD MOT ÖSTER (entréfasad)</text>
	<text x="20" y="28" font-size="3" fill="#666">SKISS V1 — EJ BYGGLOVSHANDLING · Skanör-inspirerad · skala 1:100 (A3)</text>
	<text x="405" y="285" font-size="2.5" text-anchor="end">Husbygget · 2026-07-18 · skiss av Claude</text>

	<!-- ==== GEOMETRI: 1 m = 10 mm. Marklinje y=210. ==== -->
	<g transform="translate(60,0)">
		<!-- Marklinje (ny = heldragen; befintlig streckad strax under, skiss) -->
		<line x1="-15" y1="210" x2="240" y2="210" stroke="#000" stroke-width="0.8"/>
		<line x1="-15" y1="212" x2="240" y2="212" stroke="#000" stroke-width="0.35" stroke-dasharray="3 2"/>

		<!-- HUVUDKROPP x 72..192: vägg till takfot 5,7 m (y 153), nock 7,4 m (y 136) -->
		<rect x="72" y="153" width="120" height="57" fill="none" stroke="#000" stroke-width="0.5"/>
		<!-- takfot + nocklinje (nock öst-väst: fasaden visar takplanet som band) -->
		<line x1="69" y1="153" x2="195" y2="153" stroke="#000" stroke-width="0.5"/>
		<line x1="74" y1="136" x2="190" y2="136" stroke="#000" stroke-width="0.35"/>
		<line x1="69" y1="153" x2="74" y2="136" stroke="#000" stroke-width="0.35"/>
		<line x1="195" y1="153" x2="190" y2="136" stroke="#000" stroke-width="0.35"/>

		<!-- GARAGELÄNGA x 0..72: takfot 5,2 (y 158), nock 6,4 (y 146) -->
		<rect x="0" y="158" width="72" height="52" fill="none" stroke="#000" stroke-width="0.5"/>
		<line x1="-3" y1="158" x2="72" y2="158" stroke="#000" stroke-width="0.5"/>
		<line x1="2" y1="146" x2="69" y2="146" stroke="#000" stroke-width="0.35"/>
		<line x1="-3" y1="158" x2="2" y2="146" stroke="#000" stroke-width="0.35"/>

		<!-- Garagefönster (portarna sitter i norra gaveln — se Fasad mot norr) -->
		<rect x="14" y="190" width="12" height="10" fill="none" stroke="#000" stroke-width="0.35"/>
		<rect x="45" y="190" width="12" height="10" fill="none" stroke="#000" stroke-width="0.35"/>
		<!-- Lägenhetens fönster (över garaget) -->
		<rect x="14" y="164" width="12" height="12" fill="none" stroke="#000" stroke-width="0.35"/>
		<rect x="45" y="164" width="12" height="12" fill="none" stroke="#000" stroke-width="0.35"/>
		<line x1="20" y1="164" x2="20" y2="176" stroke="#000" stroke-width="0.18"/>
		<line x1="51" y1="164" x2="51" y2="176" stroke="#000" stroke-width="0.18"/>

		<!-- Entrédörr + skärmtak x 116..128 -->
		<rect x="116" y="189" width="12" height="21" fill="none" stroke="#000" stroke-width="0.35"/>
		<line x1="113" y1="187" x2="131" y2="187" stroke="#000" stroke-width="0.8"/>
		<!-- Högt fönsterparti över entrén (Skanörs dubbelhöga entré) -->
		<rect x="117" y="158" width="10" height="26" fill="none" stroke="#000" stroke-width="0.35"/>
		<line x1="122" y1="158" x2="122" y2="184" stroke="#000" stroke-width="0.18"/>

		<!-- Fönster bv väster om entrén (klädvård) + vardagsrumsparti öster syns bakom uterum -->
		<rect x="80" y="188" width="10" height="12" fill="none" stroke="#000" stroke-width="0.35"/>

		<!-- Fönster bv öster (vardagsrum, stort parti) + öv (master + sovrum) -->
		<rect x="145" y="185" width="30" height="18" fill="none" stroke="#000" stroke-width="0.35"/>
		<line x1="155" y1="185" x2="155" y2="203" stroke="#000" stroke-width="0.18"/>
		<line x1="165" y1="185" x2="165" y2="203" stroke="#000" stroke-width="0.18"/>
		<rect x="97" y="162" width="10" height="12" fill="none" stroke="#000" stroke-width="0.35"/>
		<rect x="155" y="162" width="14" height="12" fill="none" stroke="#000" stroke-width="0.35"/>
		<line x1="162" y1="162" x2="162" y2="174" stroke="#000" stroke-width="0.18"/>

		<!-- UTERUM på södra gaveln: skjuter ut 3,6 m söderut (x 192..228) -->
		<rect x="192" y="183" width="36" height="27" fill="none" stroke="#000" stroke-width="0.5"/>
		<g stroke="#000" stroke-width="0.18">
			<line x1="204" y1="183" x2="204" y2="210"/><line x1="216" y1="183" x2="216" y2="210"/>
			<line x1="192" y1="196" x2="228" y2="196"/>
		</g>
		<line x1="190" y1="183" x2="230" y2="183" stroke="#000" stroke-width="0.8"/>
		<!-- Balkongräcke ovanpå (1,1 m) -->
		<g stroke="#000" stroke-width="0.25">
			<line x1="192" y1="172" x2="228" y2="172" stroke-width="0.5"/>
			<line x1="194" y1="172" x2="194" y2="183"/><line x1="199" y1="172" x2="199" y2="183"/><line x1="204" y1="172" x2="204" y2="183"/>
			<line x1="209" y1="172" x2="209" y2="183"/><line x1="214" y1="172" x2="214" y2="183"/><line x1="219" y1="172" x2="219" y2="183"/>
			<line x1="224" y1="172" x2="224" y2="183"/>
		</g>
		<text x="210" y="216" font-size="2.2" text-anchor="middle" fill="#444">uterum, balkong ovanpå</text>

		<!-- Höjdmått -->
		<g font-size="2.8" stroke-width="0.13">
			<line x1="240" y1="136" x2="240" y2="210" stroke="#000"/>
			<line x1="238" y1="136" x2="242" y2="136" stroke="#000"/>
			<line x1="238" y1="153" x2="242" y2="153" stroke="#000"/>
			<line x1="238" y1="210" x2="242" y2="210" stroke="#000"/>
			<text x="244" y="137" font-size="2.8">nock +7,4</text>
			<text x="244" y="154" font-size="2.8">takfot +5,7</text>
			<text x="244" y="209" font-size="2.8">mark ±0</text>
			<text x="106" y="220" font-size="2.5" fill="#444">taklutning 27° · fasad: material/kulör TBD</text>
		</g>
	</g>

	<!-- Skalstock 1:100 -->
	<g transform="translate(20,278)">
		<rect x="0" y="0" width="10" height="2" fill="#000"/><rect x="10" y="0" width="10" height="2" fill="none" stroke="#000" stroke-width="0.18"/>
		<rect x="20" y="0" width="10" height="2" fill="#000"/><rect x="30" y="0" width="10" height="2" fill="none" stroke="#000" stroke-width="0.18"/>
		<rect x="40" y="0" width="10" height="2" fill="#000"/>
		<text x="0" y="-1.2" font-size="2.5" text-anchor="middle">0</text><text x="50" y="-1.2" font-size="2.5" text-anchor="middle">5 m</text>
	</g>
</svg>
