<svg xmlns="http://www.w3.org/2000/svg" viewBox="0 0 420 297" font-family="Arial, Helvetica, sans-serif">
	<rect width="420" height="297" fill="#ffffff"/>
	<rect x="10" y="10" width="400" height="277" fill="none" stroke="#000" stroke-width="0.35"/>
	<text x="20" y="22" font-size="5" font-weight="bold">PLAN — ÖVERVÅNING</text>
	<text x="20" y="28" font-size="3" fill="#666">SKISS V1 — EJ BYGGLOVSHANDLING · Skanör-inspirerad · skala 1:100 (A3)</text>
	<text x="405" y="285" font-size="2.5" text-anchor="end">Husbygget · 2026-07-18 · skiss av Claude</text>

	<g transform="translate(395,35)">
		<circle r="7" fill="none" stroke="#000" stroke-width="0.25"/>
		<path d="M 5 0 L -5 0 M -5 0 L -1.5 -2 M -5 0 L -1.5 2" stroke="#000" stroke-width="0.5" fill="none"/>
		<text x="-9" y="1" text-anchor="end" font-size="3">N</text>
	</g>

	<!-- ==== GEOMETRI: 1 m = 10 mm. Norr = upp. ==== -->
	<g transform="translate(60,45)">
		<!-- Huvudkropp -->
		<rect x="72" y="0" width="120" height="90" fill="none" stroke="#000" stroke-width="4"/>
		<!-- Garagelänga (lägenheten) -->
		<rect x="0" y="15" width="72" height="66" fill="none" stroke="#000" stroke-width="4"/>
		<!-- Balkong (uterummets tak) på ÖSTRA gaveln, med räcke -->
		<rect x="192" y="25" width="36" height="48" fill="none" stroke="#000" stroke-width="0.8"/>
		<g stroke="#000" stroke-width="0.25">
			<line x1="192" y1="28" x2="228" y2="28"/><line x1="225" y1="25" x2="225" y2="73"/>
			<line x1="192" y1="70" x2="228" y2="70"/>
		</g>
		<text x="210" y="47" font-size="3" text-anchor="middle">BALKONG</text>
		<text x="210" y="51.5" font-size="2.5" text-anchor="middle" fill="#444">räcke 1,1 m · 17 m²</text>

		<!-- Innerväggar huvudkropp -->
		<g stroke="#000" stroke-width="1.2">
			<line x1="72" y1="32" x2="192" y2="32"/>        <!-- norra sovrumsraden | södra -->
			<line x1="112" y1="0" x2="112" y2="32"/>        <!-- sovrum 2 | sovrum 3 -->
			<line x1="152" y1="0" x2="152" y2="32"/>        <!-- sovrum 3 | bad -->
			<line x1="112" y1="32" x2="112" y2="90"/>       <!-- öppet ned | allrum -->
			<line x1="152" y1="32" x2="152" y2="90"/>       <!-- allrum | master -->
			<line x1="152" y1="72" x2="192" y2="72"/>       <!-- master | klk-remsa -->
			<line x1="170" y1="72" x2="170" y2="90"/>       <!-- klk | pass -->
		</g>

		<!-- Trappa upp (samma läge som bv) + öppet ned över entrén -->
		<g stroke="#000" stroke-width="0.35">
			<rect x="103" y="38" width="9" height="30" fill="none"/>
			<line x1="103" y1="44" x2="112" y2="44"/><line x1="103" y1="50" x2="112" y2="50"/>
			<line x1="103" y1="56" x2="112" y2="56"/><line x1="103" y1="62" x2="112" y2="62"/>
		</g>
		<g font-size="2.5" fill="#444">
			<text x="92" y="76" text-anchor="middle">ÖPPET NED</text>
			<text x="92" y="80" text-anchor="middle">(entré)</text>
		</g>
		<line x1="72" y1="32" x2="112" y2="90" stroke="#000" stroke-width="0.25" stroke-dasharray="2 1.5"/>

		<!-- Skjutparti master → balkong (öppning i södra gavelväggen) -->
		<rect x="190" y="37" width="4" height="35" fill="#fff"/>
		<g stroke="#000" stroke-width="0.8">
			<line x1="191" y1="37" x2="191" y2="56"/>
			<line x1="193" y1="53" x2="193" y2="72"/>
		</g>
		<text x="188" y="34" font-size="2.2" text-anchor="end" fill="#444">skjutparti 3,5 m</text>

		<!-- Lägenheten: öppen studio + separat bad -->
		<g stroke="#000" stroke-width="1.2">
			<line x1="45" y1="15" x2="45" y2="40"/>
			<line x1="45" y1="40" x2="62" y2="40"/>
		</g>
		<g font-size="3">
			<text x="30" y="60" text-anchor="middle">SOVRUM / ALLRUM + PENTRY</text>
			<text x="30" y="64.5" text-anchor="middle" font-size="2.5" fill="#444">lägenhet, öppen studio · 26 m²</text>
			<text x="53" y="28" text-anchor="middle">BAD/WC</text>
		</g>
		<!-- Lägenhetens interndörr → huvudhus -->
		<rect x="70" y="55" width="4" height="9" fill="#fff"/>
		<text x="76" y="52" font-size="2.2" fill="#444">dörr till huvudhus</text>

		<!-- Rumsnamn huvudkropp -->
		<g font-size="3">
			<text x="92" y="15" text-anchor="middle">SOVRUM 2</text><text x="92" y="19.5" text-anchor="middle" font-size="2.5" fill="#444">11 m²</text>
			<text x="132" y="15" text-anchor="middle">SOVRUM 3</text><text x="132" y="19.5" text-anchor="middle" font-size="2.5" fill="#444">11 m²</text>
			<text x="172" y="15" text-anchor="middle">BAD</text><text x="172" y="19.5" text-anchor="middle" font-size="2.5" fill="#444">badkar</text>
			<text x="161" y="82" text-anchor="middle">KLK</text>
			<text x="130" y="55" text-anchor="middle">ALLRUM</text>
			<text x="172" y="50" text-anchor="middle">MASTER</text>
			<text x="172" y="54.5" text-anchor="middle">BEDROOM</text>
			<text x="172" y="59" text-anchor="middle" font-size="2.5" fill="#444">15 m² · skjutdörrar</text>
			<text x="172" y="63" text-anchor="middle" font-size="2.5" fill="#444">mot balkong i söder</text>
		</g>

		<!-- Snitt A–A -->
		<g stroke="#000" stroke-width="0.8">
			<line x1="107" y1="-8" x2="107" y2="-2" stroke-dasharray="4 1.5 1 1.5"/>
			<line x1="107" y1="92" x2="107" y2="98" stroke-dasharray="4 1.5 1 1.5"/>
			<circle cx="107" cy="-11" r="3" fill="none" stroke-width="0.35"/>
			<circle cx="107" cy="101" r="3" fill="none" stroke-width="0.35"/>
			<text x="107" y="-9.9" font-size="3" text-anchor="middle">A</text>
			<text x="107" y="102.1" font-size="3" text-anchor="middle">A</text>
		</g>
	</g>

	<!-- Skalstock 1:100 -->
	<g transform="translate(20,278)">
		<rect x="0" y="0" width="10" height="2" fill="#000"/><rect x="10" y="0" width="10" height="2" fill="none" stroke="#000" stroke-width="0.18"/>
		<rect x="20" y="0" width="10" height="2" fill="#000"/><rect x="30" y="0" width="10" height="2" fill="none" stroke="#000" stroke-width="0.18"/>
		<rect x="40" y="0" width="10" height="2" fill="#000"/>
		<text x="0" y="-1.2" font-size="2.5" text-anchor="middle">0</text><text x="50" y="-1.2" font-size="2.5" text-anchor="middle">5 m</text>
	</g>
</svg>
